<svg width="25" height="25" viewBox="0 0 25 25" fill="none" xmlns="http://www.w3.org/2000/svg">
<g clip-path="url(#clip0_6:129)">
<path d="M23.5001 18.5006H20.5001V15.5006C20.5001 15.2354 20.3948 14.981 20.2073 14.7935C20.0197 14.606 19.7654 14.5006 19.5001 14.5006C19.2349 14.5006 18.9806 14.606 18.793 14.7935C18.6055 14.981 18.5001 15.2354 18.5001 15.5006V18.5006H15.5001C15.2349 18.5006 14.9806 18.606 14.793 18.7935C14.6055 18.981 14.5001 19.2354 14.5001 19.5006C14.5001 19.7658 14.6055 20.0202 14.793 20.2077C14.9806 20.3953 15.2349 20.5006 15.5001 20.5006H18.5001V23.5006C18.5001 23.7658 18.6055 24.0202 18.793 24.2077C18.9806 24.3953 19.2349 24.5006 19.5001 24.5006C19.7654 24.5006 20.0197 24.3953 20.2073 24.2077C20.3948 24.0202 20.5001 23.7658 20.5001 23.5006V20.5006H23.5001C23.7654 20.5006 24.0197 20.3953 24.2073 20.2077C24.3948 20.0202 24.5001 19.7658 24.5001 19.5006C24.5001 19.2354 24.3948 18.981 24.2073 18.7935C24.0197 18.606 23.7654 18.5006 23.5001 18.5006Z" fill="#374957"/>
<path d="M11.5002 7.5V12.086L8.7932 14.793C8.69769 14.8852 8.62151 14.9956 8.5691 15.1176C8.51669 15.2396 8.48911 15.3708 8.48795 15.5036C8.4868 15.6364 8.5121 15.768 8.56238 15.8909C8.61266 16.0138 8.68692 16.1255 8.78081 16.2194C8.8747 16.3133 8.98635 16.3875 9.10925 16.4378C9.23214 16.4881 9.36382 16.5134 9.4966 16.5122C9.62938 16.5111 9.7606 16.4835 9.8826 16.4311C10.0046 16.3787 10.115 16.3025 10.2072 16.207L13.2072 13.207C13.3947 13.0195 13.5001 12.7652 13.5002 12.5V7.5C13.5002 7.23478 13.3948 6.98043 13.2073 6.79289C13.0198 6.60536 12.7654 6.5 12.5002 6.5C12.235 6.5 11.9806 6.60536 11.7931 6.79289C11.6056 6.98043 11.5002 7.23478 11.5002 7.5Z" fill="#374957"/>
<path d="M15.2279 22.1244C13.1014 22.7237 10.8361 22.6008 8.78686 21.7749C6.73763 20.9491 5.02019 19.4668 3.90351 17.5604C2.78684 15.654 2.33399 13.4311 2.61589 11.2397C2.8978 9.04841 3.89854 7.01246 5.46138 5.45076C7.02421 3.88905 9.06089 2.88979 11.2524 2.60947C13.4439 2.32916 15.6666 2.78362 17.5722 3.90167C19.4778 5.01973 20.9587 6.73825 21.7831 8.78807C22.6075 10.8379 22.7288 13.1033 22.1279 15.2294C22.0872 15.3572 22.0727 15.4919 22.0852 15.6254C22.0976 15.759 22.1368 15.8887 22.2004 16.0068C22.2641 16.1248 22.3508 16.2289 22.4554 16.3128C22.5601 16.3967 22.6806 16.4587 22.8097 16.495C22.9388 16.5314 23.0739 16.5414 23.207 16.5245C23.34 16.5076 23.4683 16.4641 23.5842 16.3966C23.7001 16.329 23.8012 16.2389 23.8816 16.1315C23.9619 16.0241 24.0198 15.9016 24.0519 15.7714C24.7733 13.2181 24.6274 10.4977 23.6371 8.03632C22.6467 5.5749 20.8678 3.51153 18.5791 2.16944C16.2904 0.827355 13.6212 0.282373 10.9895 0.619872C8.35791 0.957372 5.91257 2.15829 4.0366 4.03448C2.16063 5.91068 0.960009 8.35616 0.622828 10.9878C0.285646 13.6195 0.83095 16.2887 2.17331 18.5772C3.51568 20.8658 5.57927 22.6444 8.0408 23.6345C10.5023 24.6245 13.2228 24.7701 15.7759 24.0484C15.905 24.0152 16.0262 23.9565 16.1323 23.8757C16.2385 23.795 16.3274 23.6939 16.3938 23.5783C16.4603 23.4627 16.503 23.335 16.5193 23.2027C16.5357 23.0703 16.5255 22.9361 16.4892 22.8078C16.4529 22.6795 16.3913 22.5597 16.3081 22.4555C16.2249 22.3514 16.1216 22.2649 16.0045 22.2013C15.8873 22.1376 15.7586 22.098 15.626 22.0848C15.4933 22.0716 15.3593 22.085 15.2319 22.1244H15.2279Z" fill="#374957"/>
</g>
<defs>
<clipPath id="clip0_6:129">
<rect width="24" height="24" fill="white" transform="translate(0.5 0.5)"/>
</clipPath>
</defs>
</svg>
