<svg width="25" height="25" viewBox="0 0 25 25" fill="none" xmlns="http://www.w3.org/2000/svg">
<g clip-path="url(#clip0_6:103)">
<path d="M21.4999 4.5H18.3999C18.1678 3.37141 17.5537 2.35735 16.6612 1.62872C15.7686 0.90009 14.6521 0.501455 13.4999 0.5L11.4999 0.5C10.3477 0.501455 9.23123 0.90009 8.33866 1.62872C7.44609 2.35735 6.83201 3.37141 6.59991 4.5H3.49991C3.23469 4.5 2.98034 4.60536 2.7928 4.79289C2.60527 4.98043 2.49991 5.23478 2.49991 5.5C2.49991 5.76522 2.60527 6.01957 2.7928 6.20711C2.98034 6.39464 3.23469 6.5 3.49991 6.5H4.49991V19.5C4.5015 20.8256 5.02879 22.0964 5.96613 23.0338C6.90347 23.9711 8.17431 24.4984 9.49991 24.5H15.4999C16.8255 24.4984 18.0964 23.9711 19.0337 23.0338C19.971 22.0964 20.4983 20.8256 20.4999 19.5V6.5H21.4999C21.7651 6.5 22.0195 6.39464 22.207 6.20711C22.3946 6.01957 22.4999 5.76522 22.4999 5.5C22.4999 5.23478 22.3946 4.98043 22.207 4.79289C22.0195 4.60536 21.7651 4.5 21.4999 4.5ZM11.4999 2.5H13.4999C14.1202 2.50076 14.725 2.69338 15.2315 3.05144C15.738 3.40951 16.1213 3.91549 16.3289 4.5H8.67091C8.87849 3.91549 9.26181 3.40951 9.7683 3.05144C10.2748 2.69338 10.8796 2.50076 11.4999 2.5ZM18.4999 19.5C18.4999 20.2956 18.1838 21.0587 17.6212 21.6213C17.0586 22.1839 16.2956 22.5 15.4999 22.5H9.49991C8.70426 22.5 7.9412 22.1839 7.37859 21.6213C6.81598 21.0587 6.49991 20.2956 6.49991 19.5V6.5H18.4999V19.5Z" fill="#374957"/>
<path d="M10.5 18.4994C10.7652 18.4994 11.0196 18.394 11.2071 18.2065C11.3946 18.0189 11.5 17.7646 11.5 17.4994V11.4994C11.5 11.2342 11.3946 10.9798 11.2071 10.7923C11.0196 10.6047 10.7652 10.4994 10.5 10.4994C10.2348 10.4994 9.98043 10.6047 9.79289 10.7923C9.60536 10.9798 9.5 11.2342 9.5 11.4994V17.4994C9.5 17.7646 9.60536 18.0189 9.79289 18.2065C9.98043 18.394 10.2348 18.4994 10.5 18.4994Z" fill="#374957"/>
<path d="M14.4999 18.4994C14.7651 18.4994 15.0194 18.394 15.207 18.2065C15.3945 18.0189 15.4999 17.7646 15.4999 17.4994V11.4994C15.4999 11.2342 15.3945 10.9798 15.207 10.7923C15.0194 10.6047 14.7651 10.4994 14.4999 10.4994C14.2346 10.4994 13.9803 10.6047 13.7927 10.7923C13.6052 10.9798 13.4998 11.2342 13.4998 11.4994V17.4994C13.4998 17.7646 13.6052 18.0189 13.7927 18.2065C13.9803 18.394 14.2346 18.4994 14.4999 18.4994Z" fill="#374957"/>
</g>
<defs>
<clipPath id="clip0_6:103">
<rect width="24" height="24" fill="white" transform="translate(0.5 0.5)"/>
</clipPath>
</defs>
</svg>
